<svg id="Camada_1" data-name="Camada 1" xmlns="http://www.w3.org/2000/svg" viewBox="0 0 372.49 459.8"><defs><style>.cls-1,.cls-3{fill:#4f4f4f;}.cls-2{fill:none;stroke:#8ad7d7;stroke-linecap:round;stroke-linejoin:round;stroke-width:12px;}.cls-3{font-size:67.36px;font-family:Poppins-SemiBold, Poppins;font-weight:600;}</style></defs><title>logo</title><path class="cls-1" d="M157.07,356q-5.73-3.6-11.2-7.61c-.94-.69-1.87-1.39-2.8-2.1-1.19-.9,1,.8-.16-.12l-1.37-1.08c-1.77-1.41-3.5-2.84-5.21-4.31a181.89,181.89,0,0,1-19-18.9c-2.07-2.38-6.4-2.27-8.49,0a6.15,6.15,0,0,0,0,8.49,188.25,188.25,0,0,0,42.14,36,6,6,0,1,0,6-10.36Z" transform="translate(-63.28 -22)"/><path class="cls-1" d="M117.37,321.92c-2.11-2.44-4.17-4.94-6.15-7.49.66.84-.67-.9-.79-1.06l-1.36-1.83c-1-1.39-2-2.78-3-4.19a177.63,177.63,0,0,1-10-16.36q-2.27-4.17-4.3-8.46c-.66-1.39-1.31-2.79-1.93-4.19l-.93-2.12c-.47-1.1-.17-.4-.07-.17l-.66-1.6A181.3,181.3,0,0,1,81.85,256a179,179,0,0,1-4.34-19.28q-.39-2.36-.72-4.71c-.18-1.23-.07-.45,0-.18l-.15-1.19c-.12-1-.24-2-.35-3q-.54-5.12-.8-10.25a181.79,181.79,0,0,1,0-18.53c.14-2.76.35-5.51.61-8.26.13-1.32.27-2.64.43-4,.08-.66.17-1.31.25-2-.18,1.48.13-.93.19-1.35a179.56,179.56,0,0,1,7.69-31.76q1.32-3.87,2.82-7.68c.47-1.19,1-2.38,1.44-3.56-.53,1.29.19-.42.34-.77.32-.74.64-1.47,1-2.19q3.27-7.29,7.2-14.27t8.39-13.5c1.51-2.22,3.08-4.4,4.69-6.55l1.15-1.5c-.8,1,.27-.35.51-.65.83-1.06,1.67-2.1,2.53-3.13A181.55,181.55,0,0,1,137,75.11c2-1.68,4-3.3,6.05-4.92.68-.54-.79.59-.09.07l.75-.57,1.7-1.28c1.08-.8,2.17-1.58,3.27-2.36q6.5-4.57,13.37-8.58t14.15-7.4c1.22-.57,2.46-1.13,3.7-1.68l1.76-.76c.24-.11,1.06-.44-.11,0l1.11-.46q3.66-1.5,7.4-2.85a179.87,179.87,0,0,1,31.8-8.22c1.31-.21,2.61-.41,3.92-.6.19,0,1.24-.16.43-.06s.23,0,.43,0l2.22-.27q4.23-.48,8.47-.76,8.46-.55,17-.34t16.76,1.22l2,.25c-1.43-.18.47.06.86.12,1.47.21,2.93.44,4.39.69q4.13.7,8.2,1.59a185.67,185.67,0,0,1,30.9,9.74c-1.29-.53.42.19.77.34l1.76.77q2,.88,3.9,1.8,3.56,1.7,7,3.54,7,3.74,13.71,8.08c2.26,1.46,4.47,3,6.66,4.54,1,.73,2,1.48,3.06,2.24l1.51,1.14c.88.67.07,0-.09-.07l1.11.87q6.23,4.9,12,10.34t11,11.34q2.67,3,5.21,6.11c.8,1,1.58,2,2.36,3,.17.21.69.9-.07-.09l.58.75c.43.56.85,1.13,1.28,1.7a180.42,180.42,0,0,1,16.71,27.32q1.76,3.53,3.35,7.14l.86,2c.11.24.44,1.06,0-.11l.36.88c.52,1.26,1,2.53,1.52,3.8q2.91,7.54,5.13,15.34t3.75,15.92c.52,2.75,1,5.51,1.36,8.28,0,.2.17,1.25.06.43s0,.24.06.44l.24,2c.16,1.41.3,2.81.43,4.22.51,5.53.75,11.08.76,16.63a6,6,0,0,0,12,0A185.81,185.81,0,0,0,423.2,141,188.9,188.9,0,0,0,388,83.76,186,186,0,0,0,141.69,56.38,189.66,189.66,0,0,0,95,104.16a184.3,184.3,0,0,0-26.8,61A189.39,189.39,0,0,0,66,240.52a184.22,184.22,0,0,0,30.51,74.06,200.41,200.41,0,0,0,12.33,15.83c2.06,2.38,6.41,2.27,8.49,0a6.16,6.16,0,0,0,0-8.49Z" transform="translate(-63.28 -22)"/><path class="cls-1" d="M242.18,79.44v200.9c0,2.72,0,5.44,0,8.15v.35a6,6,0,0,0,12,0V87.94c0-2.72,0-5.43,0-8.15v-.35a6,6,0,0,0-12,0Z" transform="translate(-63.28 -22)"/><path class="cls-1" d="M295.77,111.51h-66c-2.62,0-5.25,0-7.87,0a42.57,42.57,0,0,0-30.26,12.67,38.23,38.23,0,0,0-10.38,31.2,39.3,39.3,0,0,0,40.07,34.76h45.78c.65,0,1.3,0,2,.1l.87.08c.52,0,1.75.43,0,0a70.52,70.52,0,0,1,7.41,1.88l1,.37c.92.35-.4-.16-.48-.21.58.35,1.26.57,1.87.87q1.68.85,3.27,1.86c.52.34,1,.69,1.55,1a6.7,6.7,0,0,0,.68.51c-1.41-.82-.53-.41-.15-.1a32.71,32.71,0,0,1,2.76,2.51c.87.89,1.61,1.87,2.45,2.79-1.28-1.41,0,0,.26.42.38.56.75,1.13,1.09,1.72a34.76,34.76,0,0,1,1.72,3.32c.53,1.15-.5-1.35-.07-.16.07.21.16.43.24.64.26.71.49,1.42.69,2.15.34,1.2.57,2.4.8,3.63s-.16-1.48,0-.18c0,.24,0,.48.08.71q.12,1.23.15,2.46c0,1.15,0,2.3-.08,3.44l-.09,1c0,.19-.16,1.33,0,.2s0,0,0,.2c-.08.44-.16.88-.25,1.32-.23,1.08-.51,2.14-.84,3.2-.2.62-.42,1.24-.65,1.85-.08.2-.18.41-.24.61.52-1.79.17-.41,0,.06a50.39,50.39,0,0,1-3.66,6.07c1.06-1.63,0-.08-.27.29s-.78.89-1.18,1.31a33.82,33.82,0,0,1-2.68,2.54c-.43.36-1.89,1.24-.29.26-.55.34-1.05.76-1.58,1.12a33.57,33.57,0,0,1-3.06,1.8c-.48.25-1,.49-1.45.72s-1.48.5.24-.09c-.31.11-.61.25-.92.36a31.29,31.29,0,0,1-3.44,1.1c-1.19.31-2.4.46-3.6.72,2-.42.13,0-.42,0s-1.37.09-2.05.1H191.07a6,6,0,0,0,0,12h76.45A40.24,40.24,0,0,0,292.65,248a39.46,39.46,0,0,0,14.47-28A38.14,38.14,0,0,0,295,189.27a43,43,0,0,0-28.8-11.13h-12.7c-11,0-22.08.05-33.13,0-.92,0-1.84,0-2.76-.11-.54,0-2.4-.43-.42,0-.65-.14-1.32-.21-2-.35a32.32,32.32,0,0,1-3.51-.92c-.52-.17-1-.35-1.55-.54-.3-.12-.6-.27-.91-.37.6.2,1.16.51.24.09a61.2,61.2,0,0,1-6.09-3.64c1.46.89.58.46.2.15l-.74-.62-1.19-1.07c-.85-.82-1.66-1.67-2.43-2.57l-.61-.74c-.77-.93.86,1.18.15.2-.31-.44-.63-.87-.93-1.32a33.87,33.87,0,0,1-1.89-3.19c-.27-.53-.53-1.06-.78-1.61-.09-.19-.16-.4-.26-.59.81,1.63.27.64.11.22a32.17,32.17,0,0,1-1.18-3.76c-.28-1.08-.4-2.19-.66-3.27.48,2,0,0,0-.59-.06-.74-.09-1.48-.1-2.22a33.82,33.82,0,0,1,.12-3.49c0-.36.08-.71.11-1.06.14-1.31-.25,1.47,0,.17.13-.7.24-1.41.4-2.1a29.84,29.84,0,0,1,1-3.35c.11-.33.24-.65.36-1,.43-1.19-.6,1.32-.08.17.28-.63.57-1.24.89-1.85a30.38,30.38,0,0,1,1.83-3.05c.27-.4,1.62-2.08.36-.57.43-.52.85-1.05,1.3-1.56a34.33,34.33,0,0,1,2.62-2.64c.41-.37.84-.74,1.28-1.1.13-.11,1-.83.19-.16s.32-.23.49-.34a70.19,70.19,0,0,1,6.54-3.69c-1.48.84-.6.26-.16.09l.81-.31c.6-.21,1.2-.42,1.81-.6a35.89,35.89,0,0,1,3.71-.92l1-.19c.18,0,1.35-.18.24-.05s.07,0,.25,0l1.05-.1c.94-.07,1.89-.1,2.84-.11h73.82a6,6,0,0,0,0-12Z" transform="translate(-63.28 -22)"/><polyline class="cls-2" points="364.21 205.85 357.84 210.4 256.06 312.56 198.19 254.69 111.37 341.5"/><polyline class="cls-2" points="294.93 205.9 364.38 205.9 364.38 275.36"/><text class="cls-3" transform="translate(19.48 419.86)">SPARTROL</text></svg>